<svg width="155" height="70" viewBox="0 0 155 70" fill="none" xmlns="http://www.w3.org/2000/svg">
<path d="M64.7453 24.208C64.7453 22.9362 64.716 21.8405 64.6573 20.9209C64.6475 20.7056 64.6279 20.4806 64.6084 20.2654L67.7097 25.1472H69.001L72.2002 20.1871C72.1708 20.461 72.1512 20.7448 72.1317 21.0187C72.073 21.9579 72.0436 23.0243 72.0436 24.1982V28.4735H75.2819V14.728H72.4154L68.4238 21.1361L64.4812 14.728H61.4973V28.4735H64.7356V24.208H64.7453Z" fill="black"/>
<path d="M80.917 18.0638H77.7766V28.483H80.917V18.0638Z" fill="black"/>
<path d="M77.9623 15.5791C78.2949 15.8628 78.7548 15.9997 79.3418 15.9997C79.919 15.9997 80.369 15.853 80.7016 15.5497C81.0343 15.2464 81.2006 14.8551 81.2006 14.3757C81.2006 13.867 81.0343 13.4659 80.7114 13.1919C80.3886 12.9082 79.9288 12.7712 79.3418 12.7712C78.7645 12.7712 78.3047 12.918 77.9623 13.2213C77.6199 13.5246 77.4536 13.9061 77.4536 14.3757C77.4634 14.904 77.6297 15.3051 77.9623 15.5791Z" fill="black"/>
<path d="M85.0063 28.4928H86.5521V22.2511C86.5521 22.0065 86.601 21.7717 86.6988 21.5662C86.7967 21.3608 86.9336 21.1749 87.0999 21.0086C87.2662 20.8423 87.4717 20.7249 87.7065 20.6368C87.9413 20.5488 88.1956 20.5097 88.4696 20.5097C88.8218 20.4999 89.125 20.5586 89.3598 20.6955C89.6044 20.8325 89.7805 21.038 89.8979 21.3119C90.0153 21.5858 90.0741 21.938 90.0741 22.3489V28.4928H93.234V22.0946C93.234 21.1749 93.097 20.402 92.8231 19.7661C92.5492 19.1302 92.1383 18.6508 91.61 18.3378C91.0719 18.0149 90.4165 17.8584 89.624 17.8584C89.0468 17.8584 88.4989 17.9758 87.9707 18.2106C87.4521 18.4454 87.0021 18.7585 86.6303 19.14C86.5618 19.2085 86.5032 19.277 86.4445 19.3455L86.3857 18.0639H83.4019V28.483C83.5682 28.483 83.7834 28.483 84.0476 28.483C84.3117 28.483 84.6345 28.4928 85.0063 28.4928Z" fill="black"/>
<path d="M97.3334 28.493H98.8792V22.2513C98.8792 22.0067 98.9281 21.7719 99.026 21.5664C99.1238 21.361 99.2607 21.1751 99.4271 21.0088C99.5934 20.8425 99.7988 20.7251 100.034 20.637C100.268 20.549 100.523 20.5099 100.797 20.5099C101.149 20.5001 101.452 20.5588 101.687 20.6957C101.932 20.8327 102.108 21.0382 102.225 21.3121C102.342 21.5861 102.401 21.9382 102.401 22.3491V28.493H105.561V22.0948C105.561 21.1752 105.424 20.4023 105.15 19.7663C104.876 19.1304 104.475 18.651 103.937 18.338C103.399 18.0249 102.744 17.8586 101.951 17.8586C101.374 17.8586 100.826 17.976 100.298 18.2108C99.7793 18.4456 99.3292 18.7587 98.9575 19.1402C98.9086 19.1891 98.8596 19.2479 98.8107 19.3066V14.7671H95.729V28.493C95.8953 28.493 96.1106 28.493 96.3747 28.493C96.6389 28.493 96.9617 28.493 97.3334 28.493Z" fill="black"/>
<path d="M109.347 27.9743C110.032 28.4439 110.815 28.6689 111.695 28.6689C112.165 28.6689 112.615 28.6004 113.035 28.4537C113.456 28.3069 113.838 28.1113 114.17 27.8667C114.425 27.6808 114.64 27.4753 114.835 27.2503V28.4928H118.015V18.0736H114.894V19.3357C114.708 19.0911 114.493 18.8661 114.248 18.6704C113.935 18.4161 113.573 18.2204 113.163 18.0736C112.752 17.9269 112.292 17.8584 111.803 17.8584C110.903 17.8584 110.091 18.0932 109.386 18.553C108.682 19.0226 108.124 19.6585 107.713 20.4705C107.312 21.2826 107.107 22.2217 107.107 23.2783C107.107 24.3153 107.312 25.235 107.713 26.0568C108.114 26.8688 108.662 27.5047 109.347 27.9743ZM110.511 21.8108C110.707 21.3999 110.981 21.0771 111.323 20.8521C111.666 20.6271 112.077 20.5097 112.546 20.5097C113.035 20.5097 113.446 20.6271 113.798 20.8521C114.151 21.0869 114.425 21.3999 114.62 21.8108C114.816 22.2217 114.914 22.7109 114.914 23.2686C114.914 23.836 114.816 24.3154 114.62 24.7361C114.425 25.1469 114.151 25.4698 113.798 25.685C113.446 25.91 113.026 26.0176 112.546 26.0176C112.077 26.0176 111.666 25.91 111.323 25.685C110.981 25.46 110.707 25.1469 110.511 24.7361C110.316 24.3252 110.218 23.836 110.218 23.2686C110.218 22.7011 110.316 22.2217 110.511 21.8108Z" fill="black"/>
<path d="M69.7445 47.0909C70.3413 46.9246 70.8598 46.6604 71.3099 46.3082C71.7501 45.956 72.0925 45.5157 72.3273 44.9972C72.5621 44.4787 72.6795 43.8722 72.6795 43.1776C72.6795 42.571 72.5524 42.0329 72.3078 41.5535C72.0632 41.0742 71.711 40.673 71.261 40.3502C70.9675 40.1349 70.6348 39.9687 70.2728 39.8415C70.7326 39.636 71.0947 39.3425 71.3784 38.961C71.7599 38.4229 71.9556 37.7674 71.9556 36.975C71.9556 36.2706 71.7892 35.664 71.4566 35.1553C71.124 34.6564 70.6251 34.265 69.9696 34.0009C69.3141 33.7367 68.5119 33.5997 67.5727 33.5997H61.5071V47.3452H67.7684C68.4923 47.355 69.1478 47.267 69.7445 47.0909ZM64.6475 36.3978H66.9857C67.5629 36.3978 67.9933 36.5152 68.2771 36.7598C68.5608 37.0043 68.7075 37.337 68.7075 37.7479C68.7075 38.0316 68.6488 38.2762 68.5216 38.4816C68.3945 38.6871 68.2184 38.8436 67.9738 38.9512C67.7292 39.0588 67.4357 39.1175 67.1031 39.1175H64.6475V36.3978ZM64.6475 44.5668V41.622H67.5531C67.9347 41.622 68.2575 41.6807 68.5314 41.7883C68.8054 41.8959 69.0206 42.0623 69.1673 42.2677C69.3141 42.4731 69.3923 42.7275 69.3923 43.0308C69.3923 43.3537 69.3239 43.6374 69.1771 43.8624C69.0304 44.0874 68.8347 44.2635 68.5804 44.3809C68.326 44.4983 68.0129 44.557 67.6509 44.557H64.6475V44.5668Z" fill="black"/>
<path d="M73.9219 33.2377C73.9219 33.766 74.0882 34.1671 74.4208 34.4411C74.7535 34.715 75.2132 34.8618 75.8002 34.8618C76.3774 34.8618 76.8275 34.715 77.1601 34.4117C77.4928 34.1085 77.659 33.7171 77.659 33.2377C77.659 32.729 77.4927 32.3279 77.1699 32.054C76.847 31.78 76.3872 31.6333 75.8002 31.6333C75.223 31.6333 74.7632 31.78 74.4208 32.0833C74.0882 32.3768 73.9219 32.7681 73.9219 32.8755C73.9219 33.2377 73.9219 33.2377 73.9219 33.2377Z" fill="black"/>
<path d="M77.3753 36.926H74.2349V47.3452H77.3753V36.926Z" fill="black"/>
<path d="M88.4989 46.8658C89.1935 46.3962 89.7414 45.7604 90.1327 44.9386C90.5338 44.1265 90.7295 43.1873 90.7295 42.121C90.7295 41.0741 90.5241 40.1447 90.1229 39.3229C89.7218 38.5109 89.1641 37.8653 88.4695 37.3957C87.7651 36.9358 86.9629 36.701 86.0629 36.701C85.6324 36.701 85.2117 36.7695 84.8106 36.8967C84.3997 37.0239 84.028 37.2098 83.6953 37.4348C83.4507 37.6011 83.2355 37.787 83.0496 37.9827V33.5997H79.8896V47.3159H82.8148L82.8931 46.2006C83.0985 46.4354 83.3431 46.6408 83.6268 46.8267C83.9692 47.0517 84.3606 47.2278 84.7911 47.355C85.2215 47.4822 85.6715 47.5507 86.1411 47.5507C87.0216 47.5702 87.8043 47.3354 88.4989 46.8658ZM84.0573 44.5668C83.7051 44.332 83.4312 44.0091 83.2355 43.5982C83.0398 43.1873 82.942 42.6982 82.942 42.1307C82.942 41.5829 83.0398 41.0937 83.2355 40.6828C83.4312 40.2622 83.7051 39.9393 84.0573 39.7241C84.4095 39.499 84.8302 39.3914 85.3096 39.3914C85.7792 39.3914 86.1901 39.499 86.5423 39.7241C86.8945 39.9491 87.1684 40.2719 87.3542 40.6828C87.5401 41.1035 87.638 41.5829 87.638 42.1307C87.638 42.6982 87.5401 43.1776 87.3542 43.5982C87.1684 44.0091 86.8945 44.332 86.5423 44.5668C86.1901 44.8016 85.7792 44.919 85.3096 44.919C84.8302 44.919 84.4193 44.8016 84.0573 44.5668Z" fill="black"/>
<path d="M95.4646 33.6096H92.3242V47.3551H95.4646V33.6096Z" fill="black"/>
<path d="M100.904 32.0443C100.581 31.7606 100.122 31.6237 99.5346 31.6237C98.9574 31.6237 98.4976 31.7704 98.1552 32.0737C97.8128 32.377 97.6465 32.7585 97.6465 33.2281C97.6465 33.7564 97.8128 34.1575 98.1454 34.4314C98.4781 34.7151 98.9378 34.8521 99.5248 34.8521C100.102 34.8521 100.552 34.7054 100.885 34.4021C101.217 34.0988 101.384 33.7075 101.384 33.2281C101.393 32.7292 101.227 32.328 100.904 32.0443Z" fill="black"/>
<path d="M101.1 36.926H97.9595V47.3452H101.1V36.926Z" fill="black"/>
<path d="M111.137 46.8365C111.979 46.3669 112.644 45.7212 113.133 44.9092C113.622 44.0972 113.857 43.1678 113.857 42.121C113.857 41.0742 113.613 40.1447 113.133 39.3327C112.644 38.5207 111.989 37.8751 111.137 37.4055C110.296 36.9359 109.328 36.701 108.242 36.701C107.156 36.701 106.187 36.9359 105.346 37.4055C104.504 37.8751 103.829 38.5207 103.34 39.3327C102.851 40.1447 102.606 41.0742 102.606 42.121C102.606 43.1678 102.851 44.0972 103.34 44.9092C103.829 45.7212 104.495 46.3669 105.346 46.8365C106.187 47.3061 107.156 47.5409 108.242 47.5409C109.328 47.5507 110.296 47.3159 111.137 46.8365ZM106.099 43.52C105.894 43.1189 105.796 42.6493 105.806 42.121C105.796 41.6024 105.894 41.1329 106.099 40.722C106.305 40.3111 106.598 39.9882 106.97 39.7534C107.342 39.5186 107.762 39.4012 108.232 39.4012C108.701 39.4012 109.122 39.5186 109.484 39.7534C109.846 39.9882 110.14 40.3111 110.345 40.722C110.55 41.1329 110.648 41.6024 110.639 42.121C110.648 42.6493 110.55 43.1091 110.345 43.52C110.14 43.9211 109.846 44.2439 109.484 44.4787C109.122 44.7135 108.701 44.8309 108.232 44.8309C107.762 44.8309 107.342 44.7135 106.97 44.4787C106.598 44.2537 106.314 43.9309 106.099 43.52Z" fill="black"/>
<path d="M116.274 34.2943V36.926H114.425V39.6751H116.274V47.355H119.414V39.6751H121.439V36.926H119.414V34.2943H116.274Z" fill="black"/>
<path d="M124.58 46.8463C125.431 47.3159 126.429 47.5408 127.583 47.5408C128.053 47.5408 128.532 47.4822 129.002 47.3746C129.481 47.2669 129.951 47.1006 130.401 46.8756C130.86 46.6506 131.291 46.3669 131.692 46.0147L130.224 43.9308C129.823 44.2439 129.442 44.4689 129.099 44.5961C128.757 44.7233 128.356 44.7918 127.916 44.7918C127.27 44.7918 126.722 44.6744 126.252 44.4396C125.783 44.2048 125.431 43.8721 125.196 43.4515C125.088 43.2558 125 43.0406 124.942 42.8156H132.103L132.122 41.9742C132.152 41.2209 132.044 40.5165 131.809 39.8708C131.575 39.2251 131.232 38.6772 130.792 38.1978C130.352 37.7282 129.823 37.3565 129.217 37.1021C128.61 36.838 127.935 36.7108 127.201 36.7108C126.429 36.7108 125.724 36.8478 125.069 37.1119C124.423 37.3761 123.865 37.7576 123.386 38.2468C122.916 38.7359 122.545 39.3132 122.29 39.9882C122.026 40.6535 121.899 41.3872 121.899 42.1894C121.899 43.2265 122.134 44.1461 122.603 44.9483C123.063 45.7505 123.728 46.3865 124.58 46.8463ZM125.108 40.5263C125.294 40.1447 125.568 39.8512 125.92 39.6458C126.282 39.4403 126.712 39.3425 127.221 39.3425C127.583 39.3425 127.916 39.411 128.199 39.5578C128.483 39.7045 128.718 39.9001 128.894 40.1545C129.07 40.4089 129.168 40.7024 129.197 41.0252V41.0448H124.932C124.971 40.8589 125.03 40.6828 125.108 40.5263Z" fill="black"/>
<path d="M137.503 39.7827C137.885 39.5577 138.325 39.4403 138.814 39.4403C139.137 39.4403 139.45 39.4893 139.753 39.5969C140.057 39.7045 140.331 39.8414 140.575 40.0273C140.82 40.2132 141.045 40.4089 141.221 40.6143L142.933 38.5696C142.473 37.9826 141.857 37.5228 141.074 37.2C140.292 36.8771 139.44 36.7108 138.511 36.7108C137.503 36.7108 136.603 36.9456 135.801 37.4152C134.999 37.8848 134.373 38.5305 133.903 39.3523C133.434 40.1741 133.208 41.0937 133.208 42.1307C133.208 43.1678 133.443 44.0874 133.903 44.9092C134.363 45.731 134.999 46.3669 135.801 46.8463C136.603 47.3159 137.503 47.5506 138.511 47.5506C139.411 47.5506 140.262 47.3843 141.055 47.0615C141.847 46.7386 142.463 46.2886 142.913 45.7212L141.221 43.6569C141.016 43.9015 140.791 44.1167 140.546 44.283C140.301 44.4494 140.037 44.5765 139.753 44.6646C139.47 44.7526 139.147 44.7918 138.814 44.7918C138.325 44.7918 137.895 44.6744 137.523 44.4396C137.141 44.2048 136.848 43.8819 136.633 43.4808C136.417 43.0797 136.31 42.6199 136.31 42.1307C136.31 41.6122 136.417 41.1426 136.623 40.7415C136.838 40.3306 137.132 40.0078 137.503 39.7827Z" fill="black"/>
<path d="M151.65 36.926V38.1881C151.464 37.9435 151.249 37.7185 151.004 37.5228C150.691 37.2684 150.329 37.0728 149.918 36.926C149.507 36.7793 149.048 36.7108 148.559 36.7108C147.658 36.7108 146.846 36.9456 146.142 37.4054C145.438 37.875 144.88 38.5109 144.469 39.3229C144.058 40.1349 143.863 41.0741 143.863 42.1307C143.863 43.1678 144.068 44.0874 144.469 44.9092C144.87 45.731 145.418 46.3669 146.113 46.8365C146.798 47.3061 147.58 47.5311 148.461 47.5311C148.93 47.5311 149.38 47.4626 149.801 47.3159C150.222 47.1691 150.603 46.9734 150.936 46.7289C151.19 46.543 151.405 46.3375 151.601 46.1125V47.355H154.781V36.9358H151.65V36.926ZM151.396 43.5884C151.2 43.9993 150.926 44.3222 150.574 44.5374C150.222 44.7624 149.801 44.87 149.322 44.87C148.852 44.87 148.441 44.7624 148.099 44.5374C147.756 44.3124 147.482 43.9993 147.287 43.5884C147.091 43.1775 146.993 42.6884 146.993 42.1209C146.993 41.5633 147.091 41.0741 147.287 40.6632C147.482 40.2523 147.756 39.9295 148.099 39.7045C148.441 39.4795 148.852 39.3621 149.322 39.3621C149.811 39.3621 150.222 39.4795 150.574 39.7045C150.926 39.9393 151.2 40.2523 151.396 40.6632C151.591 41.0741 151.689 41.5633 151.689 42.1209C151.689 42.6884 151.591 43.1775 151.396 43.5884Z" fill="black"/>
<path d="M65.1659 56.2773C65.5181 55.9349 65.9192 55.661 66.3791 55.4751C66.8389 55.2892 67.3378 55.1914 67.8563 55.1914C68.277 55.1914 68.6683 55.2501 69.0303 55.3675C69.3923 55.4849 69.7347 55.6512 70.038 55.8664C70.3413 56.0817 70.6347 56.336 70.9087 56.6198L72.9534 54.2816C72.5621 53.8218 72.0925 53.4304 71.5544 53.0978C71.0065 52.7652 70.4293 52.5108 69.7934 52.3445C69.1673 52.1781 68.5216 52.0901 67.8661 52.0901C66.8193 52.0901 65.8508 52.2662 64.9703 52.6184C64.0898 52.9706 63.3169 53.4695 62.6712 54.0957C62.0255 54.7316 61.5168 55.4751 61.1548 56.3458C60.7928 57.2067 60.6069 58.1557 60.6069 59.1732C60.6069 60.22 60.783 61.1788 61.1254 62.0495C61.4678 62.9202 61.9668 63.6735 62.6027 64.3094C63.2484 64.9453 64.0017 65.4345 64.8724 65.7769C65.7431 66.1193 66.6921 66.2954 67.7291 66.2954C68.3944 66.2954 69.0597 66.2171 69.7249 66.0508C70.3902 65.8845 70.987 65.6595 71.5348 65.3758C72.0827 65.0921 72.5132 64.7594 72.8458 64.3974L71.2316 61.844C70.987 62.1082 70.7032 62.343 70.3804 62.5386C70.0575 62.7441 69.7054 62.9006 69.3336 63.018C68.9521 63.1354 68.5509 63.1941 68.14 63.1941C67.5237 63.1941 66.966 63.106 66.4573 62.9202C65.9584 62.7343 65.5279 62.4701 65.1757 62.1179C64.8235 61.7657 64.5496 61.3451 64.3539 60.8559C64.1582 60.3667 64.0604 59.8189 64.0604 59.2221C64.0604 58.6058 64.1582 58.0481 64.3539 57.5492C64.5496 57.0404 64.8235 56.6198 65.1659 56.2773Z" fill="black"/>
<path d="M81.3573 56.9426C81.1714 56.698 80.9562 56.473 80.7116 56.2774C80.3985 56.023 80.0365 55.8273 79.6256 55.6806C79.2147 55.5338 78.7549 55.4653 78.2658 55.4653C77.3657 55.4653 76.5537 55.7001 75.8493 56.16C75.1449 56.6295 74.5873 57.2655 74.1764 58.0775C73.7753 58.8895 73.5698 59.8287 73.5698 60.8853C73.5698 61.9223 73.7753 62.8419 74.1764 63.6637C74.5775 64.4855 75.1254 65.1214 75.82 65.591C76.5048 66.0606 77.2875 66.2856 78.168 66.2856C78.6375 66.2856 79.0876 66.2172 79.5083 66.0704C79.929 65.9237 80.3105 65.728 80.6431 65.4834C80.8975 65.2975 81.1127 65.0921 81.3084 64.867V66.1095H84.4879V55.6806H81.3671V56.9426H81.3573ZM81.1029 62.343C80.9073 62.7539 80.6333 63.0767 80.2811 63.2919C79.9289 63.5169 79.5082 63.6246 79.0289 63.6246C78.5593 63.6246 78.1484 63.5169 77.806 63.2919C77.4635 63.0669 77.1896 62.7539 76.994 62.343C76.7983 61.9321 76.7005 61.4429 76.7005 60.8755C76.7005 60.3179 76.7983 59.8287 76.994 59.4178C77.1896 59.0069 77.4635 58.684 77.806 58.459C78.1484 58.234 78.5593 58.1166 79.0289 58.1166C79.518 58.1166 79.9289 58.234 80.2811 58.459C80.6333 58.6938 80.9073 59.0069 81.1029 59.4178C81.2986 59.8287 81.3964 60.3179 81.3964 60.8755C81.3964 61.4429 81.2986 61.9321 81.1029 62.343Z" fill="black"/>
<path d="M90.759 53.0491H87.6186V55.6808H85.7695V58.4201H87.6186V66.0999H90.759V58.4201H92.7841V55.6808H90.759V53.0491Z" fill="black"/>
<path d="M101.784 56.1697C100.943 55.7001 99.9745 55.4653 98.8885 55.4653C97.8026 55.4653 96.8341 55.7001 95.9927 56.1697C95.1514 56.6393 94.4763 57.2851 93.9872 58.0971C93.498 58.9091 93.2534 59.8385 93.2534 60.8853C93.2534 61.9321 93.498 62.8615 93.9872 63.6735C94.4763 64.4855 95.1416 65.1312 95.9927 65.6008C96.8341 66.0704 97.8026 66.3052 98.8885 66.3052C99.9745 66.3052 100.943 66.0704 101.784 65.6008C102.626 65.1312 103.291 64.4855 103.78 63.6735C104.269 62.8615 104.504 61.9321 104.504 60.8853C104.504 59.8385 104.26 58.9091 103.78 58.0971C103.301 57.2851 102.626 56.6393 101.784 56.1697ZM101.002 62.2745C100.796 62.6756 100.503 62.9985 100.141 63.2333C99.7788 63.4681 99.3581 63.5854 98.8885 63.5854C98.4189 63.5854 97.9983 63.4681 97.6265 63.2333C97.2547 62.9985 96.9613 62.6756 96.7558 62.2745C96.5504 61.8734 96.4525 61.4038 96.4623 60.8755C96.4525 60.357 96.5504 59.8874 96.7558 59.4765C96.9613 59.0656 97.2547 58.7427 97.6265 58.5079C97.9983 58.2731 98.4189 58.1557 98.8885 58.1557C99.3581 58.1557 99.7788 58.2731 100.141 58.5079C100.503 58.7427 100.796 59.0656 101.002 59.4765C101.207 59.8874 101.305 60.357 101.295 60.8755C101.315 61.4038 101.217 61.8636 101.002 62.2745Z" fill="black"/>
<path d="M97.3332 54.5359L101.354 52.3738L99.9258 50.3193L96.4136 53.1076L97.3332 54.5359Z" fill="black"/>
<path d="M109.23 52.4521H106.089V66.0998H109.23V52.4521Z" fill="black"/>
<path d="M114.669 50.7988C114.346 50.515 113.887 50.3781 113.3 50.3781C112.722 50.3781 112.263 50.5248 111.92 50.8281C111.578 51.1314 111.411 51.5129 111.411 51.9825C111.411 52.5108 111.578 52.9119 111.91 53.1859C112.243 53.4598 112.703 53.6065 113.29 53.6065C113.867 53.6065 114.317 53.4598 114.65 53.1565C114.982 52.8533 115.149 52.4619 115.149 51.9825C115.158 51.4738 114.992 51.0825 114.669 50.7988Z" fill="black"/>
<path d="M114.865 55.6807H111.725V66.0998H114.865V55.6807Z" fill="black"/>
<path d="M120.872 58.5373C121.253 58.3123 121.694 58.1949 122.183 58.1949C122.506 58.1949 122.819 58.2438 123.122 58.3514C123.425 58.459 123.699 58.596 123.944 58.7819C124.188 58.9678 124.413 59.1634 124.589 59.3689L126.301 57.3241C125.842 56.7372 125.225 56.2773 124.443 55.9545C123.66 55.6316 122.809 55.4653 121.879 55.4653C120.872 55.4653 119.972 55.7001 119.169 56.1697C118.367 56.6393 117.741 57.285 117.272 58.1068C116.802 58.9286 116.577 59.8483 116.577 60.8853C116.577 61.9223 116.812 62.8419 117.272 63.6637C117.731 64.4855 118.367 65.1214 119.169 65.6008C119.972 66.0704 120.872 66.3052 121.879 66.3052C122.779 66.3052 123.631 66.1389 124.423 65.816C125.215 65.4932 125.832 65.0431 126.282 64.4757L124.589 62.4114C124.384 62.656 124.159 62.8713 123.914 63.0376C123.67 63.2039 123.406 63.3311 123.122 63.4191C122.838 63.5072 122.515 63.5463 122.183 63.5463C121.694 63.5463 121.263 63.4289 120.891 63.1941C120.51 62.9593 120.216 62.6365 120.001 62.2354C119.786 61.8342 119.678 61.3745 119.678 60.8853C119.678 60.3668 119.786 59.8972 119.991 59.4961C120.197 59.0754 120.49 58.7623 120.872 58.5373Z" fill="black"/>
<path d="M134.676 56.9426C134.49 56.698 134.275 56.473 134.03 56.2774C133.717 56.023 133.355 55.8273 132.944 55.6806C132.533 55.5338 132.074 55.4653 131.584 55.4653C130.684 55.4653 129.872 55.7001 129.168 56.16C128.464 56.6295 127.906 57.2655 127.495 58.0775C127.094 58.8895 126.888 59.8287 126.888 60.8853C126.888 61.9223 127.094 62.8419 127.495 63.6637C127.896 64.4855 128.444 65.1214 129.139 65.591C129.823 66.0606 130.606 66.2856 131.487 66.2856C131.956 66.2856 132.406 66.2172 132.827 66.0704C133.248 65.9237 133.629 65.728 133.962 65.4834C134.216 65.2975 134.431 65.0921 134.627 64.867V66.1095H137.807V55.6806H134.686V56.9426H134.676ZM134.422 62.343C134.226 62.7539 133.952 63.0767 133.6 63.2919C133.248 63.5169 132.827 63.6246 132.347 63.6246C131.878 63.6246 131.467 63.5169 131.125 63.2919C130.782 63.0669 130.508 62.7539 130.313 62.343C130.117 61.9321 130.019 61.4429 130.019 60.8755C130.019 60.3179 130.117 59.8287 130.313 59.4178C130.508 59.0069 130.782 58.684 131.125 58.459C131.467 58.234 131.878 58.1166 132.347 58.1166C132.837 58.1166 133.248 58.234 133.6 58.459C133.952 58.6938 134.226 59.0069 134.422 59.4178C134.617 59.8287 134.715 60.3179 134.715 60.8755C134.715 61.4429 134.617 61.9321 134.422 62.343Z" fill="black"/>
<path d="M47.8895 15.6665C47.8797 14.2088 46.9699 12.9663 45.6981 12.4674C45.6981 12.4674 6.04653 0.561204 4.68666 0.169874C3.32678 -0.221456 0.0102811 -0.270372 0.0102811 3.83859C0.0102811 3.84838 0.000488281 47.3741 0.000488281 47.3741C0.000488281 56.6486 5.11715 61.9413 9.41199 64.7589C14.5189 68.1047 20.4279 69.2885 23.9401 69.2885C27.8436 69.2885 33.8114 68.0656 38.8596 64.6415C42.9783 61.8435 47.8797 56.5801 47.8797 47.3741V15.735C47.8797 15.7155 47.8797 15.7057 47.8797 15.6861C47.8895 15.6861 47.8895 15.6763 47.8895 15.6665ZM1.71256 3.63314C1.71256 3.62335 1.71256 3.61359 1.71256 3.6038C1.80061 2.47873 2.41695 1.29493 4.10945 1.81344C4.14859 1.82322 18.2267 6.05937 19.2931 6.36265C18.8528 7.63448 18.5202 9.21935 18.5202 10.6575C18.5202 14.8252 20.9758 18.807 24.1162 20.9984C23.9205 21.0767 23.7934 21.1256 23.7836 21.1256C22.2378 21.7223 20.7116 22.4953 19.2246 23.4149C19.2246 23.4149 19.2148 23.4148 19.2148 23.4246C19.1659 23.454 19.1072 23.4931 19.0582 23.5225C18.6278 23.4638 18.1582 23.3855 17.6397 23.2975C9.01084 21.3995 2.12345 13.524 1.71256 4.23972C1.70277 4.03427 1.70277 3.83858 1.71256 3.63314ZM17.0233 24.9117C14.9591 26.4477 12.6796 28.5902 10.7523 30.7621C10.6349 30.7719 10.5175 30.7817 10.3805 30.8012C7.69992 30.9284 4.9117 31.2415 1.73214 27.7195V12.849C2.5148 14.4926 3.48333 16.0481 4.64753 17.4568C7.65099 21.0962 12.1024 23.7768 16.6124 24.853C16.7983 24.8921 16.8668 24.9019 17.0233 24.9117ZM1.72235 30.1457C4.98996 32.8264 9.35329 32.5328 9.35329 32.5328C8.30648 33.9025 6.68243 36.1135 5.55736 38.0604L5.45952 38.2365C3.28764 37.6006 1.72235 36.7396 1.72235 36.7396V30.1457ZM37.6856 62.949C32.9994 66.1676 27.4621 67.3221 23.8325 67.3221C20.5747 67.3221 15.0863 66.2068 10.3414 63.0664C9.0598 62.2152 7.6999 61.1195 6.44764 59.7401C8.28689 60.7477 10.6936 61.4717 13.8731 61.4717C17.2483 61.4717 20.604 60.9238 23.8423 59.8281C27.0805 60.9141 30.4362 61.4717 33.8114 61.4717C37.1182 61.4717 39.6031 60.6891 41.4619 59.6031C40.239 60.9923 38.9183 62.0978 37.6856 62.949ZM46.0014 48.9394C45.7079 51.8841 43.9273 59.5737 33.919 59.5737C30.4558 59.5737 27.1099 58.9574 23.9499 57.8323C20.7899 58.9672 17.444 59.5737 13.9807 59.5737C3.97248 59.5737 2.18214 51.8841 1.89843 48.9394C1.89843 48.9296 1.89843 48.9198 1.89843 48.91C2.06474 48.9883 2.8572 49.3405 2.98438 49.3894C6.44765 50.7786 10.1457 51.5319 13.9905 51.5319C17.4538 51.5319 20.7997 50.9156 23.9597 49.7905C27.1196 50.9253 30.4655 51.5319 33.9288 51.5319C37.7736 51.5319 41.4717 50.7786 44.9349 49.3894C45.0523 49.3405 45.8546 48.9883 46.0209 48.91C46.0013 48.9198 46.0014 48.9296 46.0014 48.9394ZM46.06 46.6892C46.06 46.6892 44.7686 47.3447 44.5045 47.4523C44.4164 47.4914 44.1719 47.5893 44.1719 47.5893C42.3326 48.323 40.4444 48.8611 38.5269 49.1938C37.0105 49.4383 35.4648 49.5655 33.8995 49.5655C31.845 49.5655 29.8296 49.3503 27.8632 48.9296C26.7381 48.6752 25.613 48.3524 24.5173 47.9611L23.8912 47.736L23.265 47.9611C22.2476 48.323 21.2106 48.6361 20.1638 48.8709C18.1191 49.3209 16.0157 49.5557 13.8634 49.5557C12.347 49.5557 10.8501 49.4383 9.39241 49.2133C7.43576 48.8807 5.49868 48.3426 3.62029 47.5893C3.62029 47.5893 3.37572 47.4914 3.28767 47.4523C3.02352 47.3349 1.84951 46.7479 1.84951 46.7479V38.9703C5.60628 40.6334 9.65654 41.5432 13.8731 41.5432C17.356 41.5432 20.7214 40.9269 23.8912 39.7725C27.0708 40.9171 30.4362 41.5432 33.9092 41.5432C38.1845 41.5432 42.2739 40.6138 46.0698 38.9115C46.06 41.5628 46.06 44.126 46.06 46.6892ZM46.1089 35.8885C46.1089 35.8885 45.9818 35.8005 45.7568 35.644C44.9545 35.1157 42.8609 33.8438 40.0042 33.0611C39.74 32.9926 38.2823 32.6698 37.8128 32.6013C37.0301 32.484 36.2181 32.4252 35.3669 32.4252C34.5843 32.4252 33.7723 32.4742 32.9505 32.6013C32.6667 32.6503 27.5012 33.2666 24.2434 37.3266C24.2336 37.3364 23.7346 37.9919 23.7151 38.0115C23.7151 38.0115 19.7235 39.3909 16.9255 39.6355C15.8787 39.7235 14.8319 39.7725 13.7655 39.7725C12.7676 39.7725 11.7795 39.7137 10.811 39.6159C9.58807 39.4887 8.37495 39.2931 7.19118 39.0192C8.8739 36.0842 11.848 32.4252 11.848 32.4252C14.8417 28.913 19.1268 24.9606 24.4684 22.8963C24.5271 22.8768 25.7305 22.417 26.2881 22.2506C29.8492 21.2136 32.8429 21.2821 35.0245 21.8593C39.3683 23.004 40.3368 25.7628 40.5521 26.7705C40.6205 27.0445 40.6499 28.0326 40.6499 28.0326L41.7163 28.4239C42.7533 28.8446 43.5653 29.3337 44.1915 29.862C44.2599 29.9207 44.4752 30.1066 44.4849 30.1262C45.248 30.8306 45.7861 31.5643 45.9818 32.3079C46.4514 34.1275 46.1089 35.8885 46.1089 35.8885Z" fill="black"/>
<path d="M35.1907 24.9999C35.1809 24.9999 35.1711 24.9901 35.1613 24.9901C34.2124 24.7455 33.2438 25.4303 33.1558 26.4282C33.146 26.5456 33.1362 26.6533 33.1362 26.7707C35.0146 26.7413 36.8343 26.9957 38.5561 27.4946C38.8007 27.5729 38.5953 27.3087 38.5855 27.2989C38.1746 26.7706 36.9908 25.4695 35.1907 24.9999Z" fill="black"/>
</svg>
