<svg width="17" height="24" viewBox="0 0 17 24" fill="none" xmlns="http://www.w3.org/2000/svg">
<path d="M16.5877 5.42654C16.5843 4.92162 16.2691 4.49125 15.8286 4.31843C15.8286 4.31843 2.09421 0.194389 1.62318 0.0588407C1.15215 -0.0767073 0.00339201 -0.0936508 0.00339201 1.3296C0.00339201 1.33299 0 16.4093 0 16.4093C0 19.6218 1.7723 21.4551 3.25993 22.431C5.02884 23.59 7.07561 24 8.29215 24C9.64424 24 11.7113 23.5764 13.4599 22.3904C14.8866 21.4212 16.5843 19.5981 16.5843 16.4093V5.45026C16.5843 5.44349 16.5843 5.4401 16.5843 5.43332C16.5877 5.43332 16.5877 5.42993 16.5877 5.42654ZM0.593022 1.25844C0.593022 1.25505 0.593022 1.25167 0.593022 1.24828C0.623521 0.858577 0.837009 0.448534 1.42325 0.628136C1.43681 0.631524 6.31315 2.09883 6.68252 2.20388C6.53003 2.64441 6.4148 3.19338 6.4148 3.69152C6.4148 5.1351 7.26537 6.51431 8.35314 7.27338C8.28537 7.30049 8.24132 7.31742 8.23793 7.31742C7.70252 7.52413 7.17388 7.79186 6.65879 8.11039C6.65879 8.11039 6.6554 8.11038 6.6554 8.11377C6.63846 8.12393 6.61812 8.13749 6.60118 8.14766C6.45208 8.12732 6.28942 8.10022 6.10982 8.06972C3.12099 7.41231 0.735348 4.68442 0.593022 1.46854C0.589634 1.39738 0.589634 1.3296 0.593022 1.25844ZM5.89634 8.62886C5.18132 9.16088 4.39175 9.903 3.72418 10.6553C3.68351 10.6587 3.64285 10.6621 3.59541 10.6689C2.66691 10.7129 1.70113 10.8214 0.599806 9.60142V4.4506C0.870902 5.0199 1.20638 5.55869 1.60963 6.04666C2.64996 7.30726 4.19181 8.23576 5.754 8.60852C5.81839 8.62208 5.84212 8.62547 5.89634 8.62886ZM0.596414 10.4418C1.72824 11.3703 3.2396 11.2687 3.2396 11.2687C2.87701 11.7431 2.31447 12.5089 1.92477 13.1833L1.89089 13.2443C1.1386 13.024 0.596414 12.7258 0.596414 12.7258V10.4418ZM13.0533 21.8041C11.4301 22.919 9.51208 23.3189 8.25487 23.3189C7.12644 23.3189 5.22538 22.9326 3.58186 21.8448C3.13794 21.55 2.6669 21.1704 2.23315 20.6926C2.87022 21.0417 3.70384 21.2924 4.80517 21.2924C5.97427 21.2924 7.13661 21.1027 8.25827 20.7231C9.37992 21.0993 10.5422 21.2924 11.7113 21.2924C12.8567 21.2924 13.7174 21.0213 14.3613 20.6452C13.9377 21.1264 13.4803 21.5093 13.0533 21.8041ZM15.9337 16.9515C15.832 17.9715 15.2153 20.635 11.7486 20.635C10.549 20.635 9.39008 20.4215 8.29553 20.0318C7.20098 20.4249 6.04205 20.635 4.84245 20.635C1.37581 20.635 0.755677 17.9715 0.657404 16.9515C0.657404 16.9481 0.657404 16.9447 0.657404 16.9413C0.715012 16.9684 0.9895 17.0904 1.03355 17.1074C2.23315 17.5886 3.51408 17.8495 4.84584 17.8495C6.04544 17.8495 7.20437 17.636 8.29892 17.2463C9.39347 17.6394 10.5524 17.8495 11.752 17.8495C13.0838 17.8495 14.3647 17.5886 15.5643 17.1074C15.605 17.0904 15.8828 16.9684 15.9404 16.9413C15.9337 16.9447 15.9337 16.9481 15.9337 16.9515ZM15.954 16.1721C15.954 16.1721 15.5067 16.3991 15.4152 16.4364C15.3847 16.45 15.3 16.4839 15.3 16.4839C14.6629 16.738 14.0089 16.9244 13.3447 17.0396C12.8194 17.1243 12.284 17.1684 11.7418 17.1684C11.0302 17.1684 10.3321 17.0938 9.65101 16.9481C9.26131 16.86 8.87162 16.7482 8.49208 16.6126L8.27521 16.5347L8.05832 16.6126C7.70589 16.738 7.3467 16.8464 6.98411 16.9278C6.27587 17.0837 5.54731 17.165 4.80179 17.165C4.27654 17.165 3.75807 17.1243 3.25315 17.0464C2.57541 16.9312 1.90445 16.7448 1.25382 16.4839C1.25382 16.4839 1.1691 16.45 1.13861 16.4364C1.04711 16.3958 0.640461 16.1924 0.640461 16.1924V13.4984C1.94172 14.0745 3.34464 14.3896 4.80517 14.3896C6.01154 14.3896 7.17727 14.1762 8.27521 13.7763C9.37654 14.1728 10.5422 14.3896 11.7452 14.3896C13.2261 14.3896 14.6426 14.0677 15.9574 13.4781C15.954 14.3964 15.954 15.2843 15.954 16.1721ZM15.9709 12.431C15.9709 12.431 15.9269 12.4005 15.849 12.3463C15.5711 12.1633 14.8459 11.7227 13.8564 11.4516C13.7649 11.4279 13.26 11.3161 13.0973 11.2924C12.8262 11.2517 12.545 11.2314 12.2501 11.2314C11.9791 11.2314 11.6978 11.2483 11.4131 11.2924C11.3149 11.3093 9.52563 11.5228 8.39719 12.9291C8.3938 12.9325 8.22098 13.1595 8.2142 13.1663C8.2142 13.1663 6.83162 13.6441 5.86245 13.7289C5.49986 13.7593 5.13727 13.7763 4.76791 13.7763C4.42226 13.7763 4.07999 13.756 3.74451 13.7221C3.32092 13.678 2.90073 13.6103 2.49069 13.5154C3.07355 12.4988 4.10372 11.2314 4.10372 11.2314C5.14066 10.0148 6.62491 8.6458 8.47514 7.93078C8.49547 7.924 8.91228 7.76473 9.10544 7.70712C10.3389 7.34792 11.3759 7.37164 12.1315 7.57158C13.6361 7.96805 13.9716 8.92367 14.0462 9.27271C14.0699 9.36759 14.08 9.70985 14.08 9.70985L14.4494 9.8454C14.8086 9.99111 15.0899 10.1606 15.3068 10.3435C15.3305 10.3639 15.405 10.4283 15.4084 10.435C15.6727 10.679 15.8591 10.9332 15.9269 11.1907C16.0895 11.821 15.9709 12.431 15.9709 12.431Z" fill="#11181C"/>
<path d="M12.1892 8.65931C12.1858 8.65931 12.1824 8.65591 12.179 8.65591C11.8503 8.5712 11.5148 8.80841 11.4843 9.15406C11.4809 9.19472 11.4775 9.232 11.4775 9.27266C12.1282 9.2625 12.7585 9.3506 13.3549 9.52342C13.4396 9.55053 13.3684 9.45904 13.365 9.45565C13.2227 9.27266 12.8127 8.82196 12.1892 8.65931Z" fill="#11181C"/>
</svg>
