<svg width="898" height="402" viewBox="0 0 898 402" fill="none" xmlns="http://www.w3.org/2000/svg">
<path d="M393.22 210.61H356.88V130.88H392.07C397.54 130.88 402.17 131.66 405.97 133.22C409.77 134.78 412.63 137.02 414.57 139.94C416.51 142.86 417.47 146.38 417.47 150.48C417.47 155.03 416.35 158.87 414.11 161.98C412.5 164.22 410.36 165.92 407.72 167.1C409.82 167.85 411.73 168.84 413.43 170.07C416.05 171.97 418.08 174.3 419.53 177.07C420.97 179.84 421.7 182.98 421.7 186.47C421.7 190.5 421.01 194 419.65 197C418.29 200 416.31 202.52 413.72 204.58C411.14 206.63 408.12 208.15 404.67 209.13C401.21 210.12 397.4 210.61 393.23 210.61H393.22ZM375.1 162.88H389.34C391.31 162.88 393 162.56 394.41 161.92C395.81 161.27 396.87 160.36 397.6 159.18C398.32 158 398.68 156.58 398.68 154.91C398.68 152.48 397.84 150.56 396.17 149.16C394.5 147.76 392 147.05 388.65 147.05H375.09V162.88H375.1ZM392.53 194.44C394.66 194.44 396.46 194.1 397.94 193.42C399.42 192.73 400.58 191.73 401.41 190.4C402.25 189.07 402.66 187.46 402.66 185.56C402.66 183.81 402.22 182.33 401.35 181.12C400.47 179.9 399.24 178.98 397.65 178.32C396.06 177.68 394.15 177.36 391.95 177.36H375.09V194.45H392.52L392.53 194.44ZM428.89 128.71C428.89 131.75 429.86 134.09 431.8 135.72C433.74 137.35 436.41 138.17 439.83 138.17C443.25 138.17 445.81 137.29 447.74 135.55C449.68 133.8 450.65 131.52 450.65 128.71C450.65 125.75 449.7 123.45 447.8 121.82C445.9 120.19 443.24 119.37 439.83 119.37C436.42 119.37 433.83 120.24 431.85 121.99C429.88 123.74 428.89 125.98 428.89 128.71ZM430.72 210.61H448.94V150.13H430.72V210.61ZM499.8 211.86C497.07 211.86 494.45 211.48 491.95 210.72C489.44 209.96 487.18 208.94 485.17 207.65C483.51 206.59 482.1 205.38 480.91 204.03L480.44 210.5H463.47V130.91H481.81V156.35C482.88 155.19 484.13 154.12 485.56 153.15C487.54 151.82 489.7 150.78 492.06 150.01C494.41 149.25 496.84 148.88 499.35 148.88C504.59 148.88 509.24 150.23 513.31 152.92C517.37 155.62 520.58 159.34 522.93 164.08C525.29 168.83 526.47 174.24 526.47 180.31C526.47 186.38 525.31 191.92 522.99 196.65C520.68 201.4 517.5 205.12 513.48 207.82C509.45 210.51 504.89 211.86 499.81 211.86H499.8ZM495.02 196.48C497.76 196.48 500.14 195.8 502.2 194.43C504.25 193.07 505.83 191.18 506.92 188.79C508.02 186.39 508.57 183.57 508.57 180.3C508.57 177.03 508.02 174.3 506.92 171.88C505.82 169.45 504.24 167.59 502.2 166.3C500.15 165.01 497.76 164.36 495.02 164.36C492.28 164.36 489.78 165.01 487.73 166.3C485.68 167.59 484.09 169.45 482.95 171.88C481.82 174.3 481.24 177.12 481.24 180.3C481.24 183.48 481.81 186.4 482.95 188.79C484.09 191.18 485.69 193.06 487.73 194.43C489.78 195.79 492.21 196.48 495.02 196.48ZM535.69 210.61H553.92V130.88H535.69V210.61ZM585.46 121.82C583.56 120.19 580.9 119.37 577.49 119.37C574.08 119.37 571.49 120.24 569.51 121.99C567.54 123.74 566.55 125.98 566.55 128.71C566.55 131.75 567.52 134.09 569.46 135.72C571.4 137.35 574.07 138.17 577.49 138.17C580.91 138.17 583.47 137.29 585.4 135.55C587.34 133.8 588.31 131.52 588.31 128.71C588.31 125.75 587.36 123.45 585.46 121.82ZM586.6 150.13H568.38V210.61H586.6V150.13ZM628.04 211.75C621.73 211.75 616.13 210.38 611.24 207.65C606.34 204.91 602.47 201.19 599.62 196.48C596.77 191.78 595.35 186.39 595.35 180.31C595.35 174.23 596.77 168.85 599.62 164.14C602.47 159.43 606.34 155.71 611.24 152.98C616.13 150.24 621.73 148.88 628.04 148.88C634.35 148.88 639.94 150.24 644.84 152.98C649.74 155.71 653.59 159.43 656.4 164.14C659.21 168.85 660.62 174.24 660.62 180.31C660.62 186.38 659.21 191.78 656.4 196.48C653.59 201.19 649.74 204.91 644.84 207.65C639.95 210.38 634.34 211.75 628.04 211.75ZM620.69 193.98C622.86 195.35 625.3 196.03 628.04 196.03C630.78 196.03 633.2 195.35 635.33 193.98C637.45 192.62 639.13 190.75 640.34 188.4C641.56 186.05 642.13 183.35 642.05 180.31C642.12 177.28 641.55 174.56 640.34 172.17C639.13 169.77 637.46 167.9 635.33 166.53C633.2 165.16 630.77 164.48 628.04 164.48C625.31 164.48 622.86 165.16 620.69 166.53C618.52 167.89 616.83 169.77 615.62 172.17C614.4 174.57 613.84 177.28 613.91 180.31C613.84 183.35 614.4 186.05 615.62 188.4C616.84 190.75 618.53 192.61 620.69 193.98ZM674.63 134.87V150.13H663.93V166.07H674.63V210.61H692.86V166.07H704.59V150.13H692.86V134.87H674.63ZM711.31 196.65C708.58 191.99 707.21 186.65 707.21 180.65C707.21 176.02 707.97 171.77 709.49 167.9C711.01 164.03 713.14 160.67 715.87 157.82C718.6 154.97 721.85 152.77 725.61 151.21C729.37 149.65 733.49 148.87 737.96 148.87C742.43 148.87 746.11 149.63 749.64 151.15C753.17 152.67 756.22 154.8 758.81 157.53C761.39 160.27 763.37 163.49 764.74 167.21C766.1 170.93 766.71 175 766.56 179.39L766.44 184.29H724.92C725.27 185.61 725.76 186.85 726.41 187.99C727.82 190.46 729.87 192.37 732.56 193.74C735.25 195.1 738.46 195.79 742.19 195.79C744.77 195.79 747.07 195.41 749.08 194.66C751.09 193.9 753.28 192.61 755.63 190.78L764.17 202.86C761.82 204.91 759.31 206.58 756.65 207.87C754 209.17 751.28 210.13 748.51 210.78C745.74 211.43 742.99 211.75 740.26 211.75C733.57 211.75 727.76 210.4 722.83 207.7C717.89 205.01 714.06 201.32 711.32 196.65H711.31ZM724.85 174.04H749.69V173.93C749.53 172.03 748.95 170.34 747.92 168.87C746.9 167.39 745.55 166.23 743.88 165.39C742.21 164.56 740.31 164.14 738.18 164.14C735.22 164.14 732.69 164.73 730.61 165.9C728.52 167.08 726.95 168.78 725.88 171.02C725.45 171.94 725.11 172.95 724.85 174.04ZM797.84 166.7C800.04 165.37 802.59 164.71 805.47 164.71C807.37 164.71 809.19 165.01 810.94 165.62C812.69 166.23 814.28 167.06 815.72 168.13C817.17 169.19 818.42 170.33 819.48 171.55L829.39 159.7C826.74 156.28 823.15 153.63 818.63 151.73C814.11 149.83 809.15 148.88 803.76 148.88C797.92 148.88 792.67 150.24 788.05 152.98C783.42 155.71 779.75 159.45 777.06 164.2C774.36 168.95 773.01 174.31 773.01 180.31C773.01 186.31 774.36 191.69 777.06 196.43C779.75 201.18 783.42 204.91 788.05 207.65C792.68 210.38 797.92 211.75 803.76 211.75C809 211.75 813.92 210.79 818.52 208.9C823.11 207 826.7 204.42 829.28 201.15L819.48 189.19C818.26 190.64 816.96 191.85 815.55 192.84C814.15 193.83 812.61 194.57 810.94 195.06C809.27 195.56 807.45 195.8 805.47 195.8C802.66 195.8 800.15 195.12 797.95 193.75C795.75 192.38 794.02 190.52 792.77 188.17C791.52 185.82 790.89 183.2 790.89 180.31C790.89 177.42 791.5 174.58 792.71 172.23C793.92 169.87 795.63 168.03 797.83 166.71L797.84 166.7ZM898 150.13V210.61H879.55V203.4C878.42 204.71 877.13 205.9 875.67 206.97C873.7 208.42 871.5 209.56 869.07 210.39C866.64 211.23 864.06 211.64 861.32 211.64C856.23 211.64 851.69 210.3 847.71 207.6C843.72 204.91 840.55 201.19 838.2 196.44C835.85 191.69 834.67 186.32 834.67 180.32C834.67 174.32 835.85 168.74 838.2 164.04C840.55 159.33 843.78 155.63 847.88 152.93C851.98 150.24 856.65 148.89 861.89 148.89C864.77 148.89 867.41 149.31 869.8 150.14C872.2 150.98 874.3 152.13 876.13 153.61C877.55 154.76 878.79 156.05 879.89 157.48V150.14H898V150.13ZM880.12 180.31C880.12 177.05 879.55 174.21 878.41 171.83C877.28 169.43 875.67 167.58 873.63 166.25C871.58 164.92 869.15 164.26 866.34 164.26C863.53 164.26 861.23 164.93 859.22 166.25C857.21 167.58 855.63 169.44 854.5 171.83C853.36 174.22 852.79 177.05 852.79 180.31C852.79 183.57 853.36 186.41 854.5 188.8C855.63 191.19 857.21 193.03 859.22 194.32C861.23 195.61 863.6 196.26 866.34 196.26C869.08 196.26 871.58 195.61 873.63 194.32C875.68 193.03 877.28 191.18 878.41 188.8C879.55 186.4 880.12 183.58 880.12 180.31ZM378.12 262.39C380.14 260.38 382.49 258.82 385.19 257.73C387.88 256.62 390.75 256.08 393.78 256.08C396.21 256.08 398.49 256.42 400.62 257.1C402.74 257.78 404.7 258.75 406.49 260.01C408.27 261.26 409.96 262.72 411.55 264.39L423.4 250.83C421.12 248.18 418.4 245.88 415.26 243.94C412.11 242 408.7 240.54 405.06 239.56C401.41 238.57 397.7 238.08 393.9 238.08C387.82 238.08 382.22 239.1 377.1 241.16C371.98 243.21 367.53 246.08 363.77 249.75C360.01 253.44 357.07 257.78 354.95 262.79C352.82 267.8 351.75 273.27 351.75 279.19C351.75 285.11 352.76 290.82 354.78 295.87C356.79 300.92 359.65 305.29 363.37 308.97C367.09 312.65 371.48 315.5 376.53 317.51C381.58 319.52 387.1 320.53 393.1 320.53C396.97 320.53 400.83 320.06 404.66 319.11C408.49 318.16 411.99 316.85 415.14 315.18C418.29 313.51 420.82 311.61 422.72 309.48L413.38 294.67C411.94 296.19 410.29 297.54 408.43 298.71C406.57 299.89 404.54 300.82 402.33 301.5C400.13 302.19 397.81 302.53 395.38 302.53C391.81 302.53 388.57 302 385.64 300.94C382.72 299.87 380.23 298.31 378.18 296.27C376.13 294.22 374.53 291.77 373.4 288.92C372.26 286.07 371.69 282.91 371.69 279.41C371.69 275.91 372.26 272.61 373.4 269.73C374.53 266.85 376.11 264.4 378.12 262.38V262.39ZM472.04 258.92H490.15V319.4H471.7V312.19C470.57 313.5 469.28 314.69 467.82 315.76C465.85 317.21 463.65 318.35 461.22 319.18C458.79 320.02 456.21 320.43 453.47 320.43C448.38 320.43 443.84 319.09 439.86 316.39C435.87 313.7 432.7 309.98 430.35 305.23C428 300.48 426.82 295.11 426.82 289.11C426.82 283.11 428 277.53 430.35 272.83C432.7 268.12 435.93 264.42 440.03 261.72C444.13 259.03 448.8 257.68 454.04 257.68C456.92 257.68 459.56 258.1 461.95 258.93C464.35 259.77 466.45 260.92 468.28 262.4C469.7 263.55 470.94 264.84 472.04 266.27V258.93V258.92ZM472.27 289.1C472.27 285.84 471.7 283 470.56 280.62C469.43 278.22 467.82 276.37 465.78 275.04C463.73 273.71 461.3 273.05 458.49 273.05C455.68 273.05 453.38 273.72 451.37 275.04C449.36 276.37 447.78 278.23 446.65 280.62C445.51 283.01 444.94 285.84 444.94 289.1C444.94 292.36 445.51 295.2 446.65 297.59C447.78 299.98 449.36 301.82 451.37 303.11C453.38 304.4 455.75 305.05 458.49 305.05C461.23 305.05 463.73 304.4 465.78 303.11C467.83 301.82 469.43 299.97 470.56 297.59C471.7 295.19 472.27 292.37 472.27 289.1ZM526.6 243.65H508.37V258.91H497.67V274.85H508.37V319.39H526.6V274.85H538.33V258.91H526.6V243.65ZM602.11 272.92C604.92 277.63 606.33 283.02 606.33 289.09C606.33 295.16 604.92 300.56 602.11 305.26C599.3 309.97 595.45 313.69 590.55 316.43C585.66 319.16 580.05 320.53 573.75 320.53C567.45 320.53 561.84 319.16 556.95 316.43C552.05 313.69 548.18 309.97 545.33 305.26C542.48 300.56 541.06 295.17 541.06 289.09C541.06 283.01 542.48 277.63 545.33 272.92C548.18 268.21 552.05 264.49 556.95 261.76C561.84 259.02 567.44 257.66 573.75 257.66C580.06 257.66 585.65 259.02 590.55 261.76C595.45 264.49 599.3 268.21 602.11 272.92ZM587.76 289.1C587.83 286.07 587.26 283.35 586.05 280.96C584.84 278.56 583.17 276.69 581.04 275.32C578.91 273.95 576.48 273.27 573.75 273.27C571.02 273.27 568.57 273.95 566.4 275.32C564.23 276.68 562.54 278.56 561.33 280.96C560.11 283.36 559.55 286.07 559.62 289.1C559.55 292.14 560.11 294.84 561.33 297.19C562.55 299.54 564.24 301.4 566.4 302.77C568.57 304.14 571.01 304.82 573.75 304.82C576.49 304.82 578.91 304.14 581.04 302.77C583.16 301.41 584.84 299.54 586.05 297.19C587.27 294.84 587.84 292.14 587.76 289.1ZM564.75 252.31L588.1 239.78L579.79 227.83L559.4 244L564.75 252.31ZM615.55 319.4H633.78V240.21H615.55V319.4ZM665.32 230.61C663.42 228.98 660.76 228.16 657.35 228.16C653.94 228.16 651.35 229.03 649.37 230.78C647.4 232.53 646.41 234.77 646.41 237.5C646.41 240.54 647.38 242.88 649.32 244.51C651.26 246.14 653.93 246.96 657.35 246.96C660.77 246.96 663.33 246.08 665.26 244.34C667.2 242.59 668.17 240.31 668.17 237.5C668.17 234.54 667.22 232.24 665.32 230.61ZM648.24 319.4H666.46V258.92H648.24V319.4ZM701.32 275.49C703.52 274.16 706.07 273.5 708.95 273.5C710.85 273.5 712.67 273.8 714.42 274.41C716.17 275.02 717.76 275.85 719.2 276.92C720.65 277.98 721.9 279.12 722.96 280.34L732.87 268.49C730.22 265.07 726.63 262.42 722.11 260.52C717.59 258.62 712.63 257.67 707.24 257.67C701.4 257.67 696.15 259.03 691.53 261.77C686.9 264.5 683.23 268.24 680.54 272.99C677.84 277.74 676.49 283.1 676.49 289.1C676.49 295.1 677.84 300.48 680.54 305.22C683.23 309.97 686.9 313.7 691.53 316.44C696.16 319.17 701.4 320.54 707.24 320.54C712.48 320.54 717.4 319.58 722 317.69C726.59 315.79 730.18 313.21 732.76 309.94L722.96 297.98C721.74 299.43 720.44 300.64 719.03 301.63C717.63 302.62 716.09 303.36 714.42 303.85C712.75 304.35 710.93 304.59 708.95 304.59C706.14 304.59 703.63 303.91 701.43 302.54C699.23 301.17 697.5 299.31 696.25 296.96C695 294.61 694.37 291.99 694.37 289.1C694.37 286.21 694.98 283.37 696.19 281.02C697.4 278.66 699.11 276.82 701.31 275.5L701.32 275.49ZM781.41 258.92H799.52V319.4H781.07V312.19C779.94 313.5 778.65 314.69 777.19 315.76C775.22 317.21 773.02 318.35 770.59 319.18C768.16 320.02 765.58 320.43 762.84 320.43C757.75 320.43 753.21 319.09 749.23 316.39C745.24 313.7 742.07 309.98 739.72 305.23C737.37 300.48 736.19 295.11 736.19 289.11C736.19 283.11 737.37 277.53 739.72 272.83C742.07 268.12 745.3 264.42 749.4 261.72C753.5 259.03 758.17 257.68 763.41 257.68C766.29 257.68 768.93 258.1 771.32 258.93C773.72 259.77 775.82 260.92 777.65 262.4C779.07 263.55 780.31 264.84 781.41 266.27V258.93V258.92ZM781.64 289.1C781.64 285.84 781.07 283 779.93 280.62C778.8 278.22 777.19 276.37 775.15 275.04C773.1 273.71 770.67 273.05 767.86 273.05C765.05 273.05 762.75 273.72 760.74 275.04C758.73 276.37 757.15 278.23 756.02 280.62C754.88 283.01 754.31 285.84 754.31 289.1C754.31 292.36 754.88 295.2 756.02 297.59C757.15 299.98 758.73 301.82 760.74 303.11C762.75 304.4 765.12 305.05 767.86 305.05C770.6 305.05 773.1 304.4 775.15 303.11C777.2 301.82 778.8 299.97 779.93 297.59C781.07 295.19 781.64 292.37 781.64 289.1Z" fill="#1A1A1A"/>
<path d="M277.84 91.16C277.84 91.07 277.84 90.98 277.84 90.89C277.84 90.83 277.84 90.78 277.84 90.72C277.76 82.25 272.5 75.03 265.12 72.17C265.12 72.17 35 3.23002 27.1 0.970023C19.2 -1.27998 -0.0199844 -1.54998 1.55968e-05 22.3C1.55968e-05 22.35 0.110001 274.91 0.110001 274.91C0.140001 328.72 29.8701 359.44 54.8101 375.74C84.4501 395.11 118.75 401.97 139.12 401.96C161.78 401.95 196.41 394.84 225.66 374.93C249.54 358.68 277.99 328.11 277.96 274.73L277.84 91.16ZM32.1 13.01C53.07 19.29 106.99 35.44 111.95 36.86C100.31 68.24 112.61 102.24 139.95 121.74C129.41 125.13 118.27 132.25 108.3 136.97C54.5401 129.55 12.48 80.89 9.87001 24.58C9.56001 3.62002 24.16 10.65 32.1 13V13.01ZM10 74.56C18.84 93.35 32.3201 109.88 49.0601 122.01C63.3601 133.21 79.7701 141.3 97.0401 145.53C85.0101 154.18 72.41 167.6 61.78 178.54C42.42 180.4 22.7101 171.68 10.0601 160.45C10.0601 158.9 10 78.47 10.01 74.56H10ZM10.08 174.13L10.15 174.18C10.36 174.33 10.57 174.48 10.78 174.62C10.98 174.76 11.19 174.9 11.39 175.03L11.57 175.15L11.74 175.26C11.95 175.4 12.16 175.54 12.37 175.68C12.58 175.82 12.8 175.96 13.01 176.09L13.1801 176.2L13.33 176.29C13.55 176.43 13.77 176.57 13.98 176.71C14.2 176.85 14.42 176.98 14.64 177.12L14.8001 177.21L14.94 177.29C15.16 177.43 15.39 177.56 15.61 177.7C15.84 177.84 16.0701 177.97 16.3001 178.11L16.4301 178.19L16.5601 178.26C16.7901 178.39 17.02 178.53 17.25 178.66C17.49 178.8 17.74 178.94 17.99 179.07L18.09 179.12L18.15 179.15C18.4 179.29 18.65 179.43 18.9 179.57C19.16 179.71 19.4201 179.85 19.6801 179.99L19.75 180.03L19.8101 180.06C20.0701 180.2 20.32 180.33 20.58 180.46C20.86 180.6 21.1401 180.75 21.4301 180.89C21.7101 181.03 21.99 181.17 22.26 181.3C22.54 181.44 22.83 181.58 23.12 181.71C23.4 181.84 23.67 181.97 23.95 182.1C24.24 182.23 24.53 182.36 24.82 182.49C25.1 182.62 25.38 182.74 25.66 182.86C25.95 182.99 26.24 183.11 26.53 183.23C26.82 183.35 27.1 183.47 27.38 183.59C27.67 183.71 27.96 183.82 28.25 183.94C28.54 184.05 28.82 184.17 29.11 184.28C29.4 184.39 29.7 184.5 29.99 184.61C30.28 184.72 30.57 184.82 30.86 184.93C31.15 185.03 31.44 185.14 31.74 185.24C32.03 185.34 32.32 185.44 32.61 185.54C32.91 185.64 33.2 185.74 33.49 185.83C33.79 185.92 34.08 186.02 34.37 186.11C34.67 186.2 34.96 186.29 35.25 186.38C35.55 186.47 35.84 186.55 36.14 186.64C36.43 186.72 36.73 186.81 37.02 186.89C37.32 186.97 37.6201 187.05 37.9201 187.13C38.2101 187.21 38.5101 187.28 38.8101 187.36C39.1101 187.43 39.41 187.5 39.71 187.58C40 187.65 40.3 187.72 40.59 187.78C40.9 187.85 41.2 187.91 41.51 187.98H41.5401C41.8201 188.05 42.1 188.11 42.39 188.16C42.69 188.22 42.9901 188.28 43.3001 188.33L43.4201 188.35C43.6801 188.4 43.94 188.45 44.2 188.49C44.49 188.54 44.78 188.59 45.08 188.63H45.14L45.26 188.66C45.51 188.7 45.76 188.74 46.01 188.78C46.29 188.82 46.57 188.86 46.85 188.9H46.96L47.12 188.94C47.36 188.97 47.59 189 47.83 189.03C48.1 189.06 48.38 189.09 48.65 189.12L48.7901 189.14L48.95 189.16C49.18 189.19 49.42 189.21 49.65 189.24C49.93 189.27 50.2 189.29 50.48 189.32H50.62L50.7901 189.35C51.0201 189.37 51.24 189.39 51.47 189.41C51.74 189.43 52.0201 189.45 52.2901 189.46H52.46L52.65 189.48C52.87 189.49 53.0801 189.51 53.3001 189.52C53.3701 189.52 53.44 189.52 53.51 189.52C47.36 197.67 37.94 210.63 32.14 220.75L31.5401 221.8C19.0501 218.1 10.1 213.19 10.1 213.19V174.14L10.08 174.13ZM218.8 365.11C191.63 383.82 159.47 390.5 138.43 390.51C119.52 390.52 87.66 384.07 60.14 365.86C52.7 360.94 44.81 354.58 37.51 346.58C48.16 352.42 62.18 356.61 80.57 356.6C100.17 356.59 119.61 353.38 138.4 347.05C157.2 353.35 176.64 356.53 196.24 356.52C215.43 356.51 229.85 351.93 240.64 345.68C233.6 353.74 225.98 360.14 218.79 365.1L218.8 365.11ZM267.01 283.8C265.34 300.87 255 345.49 196.92 345.53C176.84 345.54 157.43 342.01 139.08 335.44C120.73 342.03 101.33 345.59 81.25 345.61C23.17 345.65 12.77 301.04 11.08 283.97C11.08 283.92 11.0701 283.87 11.0601 283.82C12.0001 284.3 16.64 286.32 17.34 286.6C37.46 294.63 58.92 298.98 81.21 298.97C101.29 298.96 120.69 295.4 139.04 288.81C157.4 295.38 176.8 298.92 196.88 298.9C219.17 298.89 240.63 294.51 260.74 286.45C261.44 286.17 266.08 284.14 267.02 283.66C267.02 283.71 267.01 283.76 267 283.81L267.01 283.8ZM258.33 275.16C257.83 275.37 256.39 275.94 256.39 275.94C245.71 280.22 234.77 283.33 223.67 285.26C214.88 286.68 205.91 287.42 196.8 287.42C184.86 287.42 173.17 286.17 161.79 283.77C155.24 282.31 148.76 280.44 142.36 278.15L138.71 276.84L135.06 278.15C129.13 280.28 123.13 282.05 117.07 283.47C105.2 286.1 92.98 287.49 80.5 287.49C71.71 287.49 63.0401 286.81 54.5401 285.5C43.1701 283.6 31.96 280.45 21.02 276.09C21.02 276.09 19.58 275.52 19.08 275.31C17.54 274.66 10.72 271.22 10.72 271.22L10.69 226.1C32.49 235.74 55.98 241 80.47 240.98C100.67 240.97 120.18 237.36 138.62 230.68C157.07 237.34 176.58 240.92 196.78 240.91C221.57 240.89 245.34 235.48 267.34 225.59C267.34 241 267.36 255.87 267.37 270.72C267.37 270.72 259.88 274.51 258.34 275.17L258.33 275.16ZM267.93 207.9C267.91 208 267.9 208.05 267.9 208.05C267.9 208.05 267.19 207.51 265.84 206.62C261.21 203.53 249.04 196.17 232.43 191.68C230.9 191.27 222.46 189.43 219.7 189.03C215.18 188.37 210.43 188 205.51 187.99C200.97 187.99 196.28 188.29 191.48 189.01C190.87 189.11 186.44 189.67 180.15 191.49C169.31 194.64 152.93 201.56 140.97 216.46C140.92 216.52 138.01 220.32 137.91 220.46C137.91 220.46 114.77 228.51 98.52 229.93C92.47 230.46 86.3501 230.71 80.1701 230.71C74.3901 230.71 68.67 230.4 63.01 229.83C55.9 229.11 48.89 227.96 42 226.37C51.76 209.34 68.99 188.07 68.99 188.07C86.37 167.7 111.17 144.74 142.16 132.76C142.51 132.62 149.47 129.97 152.7 129.03C173.37 123.02 190.72 123.38 203.36 126.72C228.58 133.37 234.2 149.33 235.46 155.17C235.84 156.75 236.02 162.48 236.02 162.48L236.88 162.8L240.5 164.14C260.23 172.41 267.98 186.97 267.99 205.62C267.99 206.39 267.97 207.15 267.93 207.91V207.9Z" fill="#1A1A1A"/>
<path d="M204.2 144.93C204.14 144.91 204.08 144.9 204.02 144.88C198.51 143.48 192.89 147.45 192.38 153.21C192.32 153.86 192.29 154.53 192.29 155.19C203.17 155 213.73 156.46 223.75 159.35C225.18 159.8 223.95 158.24 223.94 158.23C221.51 155.18 214.64 147.64 204.2 144.92V144.93Z" fill="#1A1A1A"/>
</svg>
